<svg width="64" height="64" viewBox="0 0 64 64" fill="none" xmlns="http://www.w3.org/2000/svg">
<g clip-path="url(#clip0_346_112)">
<path d="M63.2785 24.8967L35.4681 3.19613C34.484 2.42475 33.2524 2 32 2C30.7476 2 29.516 2.42475 28.5351 3.19362L0.7215 24.8967C0.2645 25.2529 0 25.8183 0 26.375V56.375C0 59.4766 2.52338 62 5.625 62H58.375C61.4766 62 64 59.4766 64 56.375V26.375C64 25.8181 63.7355 25.2533 63.2785 24.8967ZM30.8452 6.14762C31.0766 5.96613 31.4648 5.75 32 5.75C32.5353 5.75 32.9234 5.96613 33.158 6.15013L59.0771 26.375L33.1548 46.6024C32.9234 46.7839 32.5353 47 32 47C31.4648 47 31.0766 46.7839 30.842 46.5999L4.92287 26.375L30.8452 6.14762ZM60.25 56.375C60.25 57.4089 59.4089 58.25 58.375 58.25H5.625C4.59113 58.25 3.75 57.4089 3.75 56.375V30.2164L28.5319 49.5539C29.516 50.3252 30.7476 50.75 32 50.75C33.2524 50.75 34.484 50.3252 35.4649 49.5564L60.25 30.2164V56.375ZM36.3765 38.7497C37.3525 38.4037 37.8633 37.332 37.5171 36.356C37.171 35.38 36.0995 34.8694 35.1234 35.2154C34.1226 35.5701 33.0718 35.75 32 35.75C26.8306 35.75 22.625 31.5444 22.625 26.375C22.625 21.2056 26.8306 17 32 17C37.1694 17 41.375 21.2056 41.375 26.375C41.375 27.4089 40.5339 28.25 39.5 28.25C38.4661 28.25 37.625 27.4089 37.625 26.375C37.625 23.2734 35.1016 20.75 32 20.75C28.8984 20.75 26.375 23.2734 26.375 26.375C26.375 29.4766 28.8984 32 32 32C33.4396 32 34.754 31.4558 35.75 30.5631C36.746 31.4559 38.0604 32 39.5 32C42.6016 32 45.125 29.4766 45.125 26.375C44.8966 16.0358 35.9221 13.25 32 13.25C24.7629 13.25 18.875 19.1379 18.875 26.375C18.875 33.6121 24.7629 39.5 32 39.5C33.4999 39.5 34.9722 39.2475 36.3765 38.7497ZM32 28.25C30.9661 28.25 30.125 27.4089 30.125 26.375C30.125 25.3411 30.9661 24.5 32 24.5C33.0339 24.5 33.875 25.3411 33.875 26.375C33.875 27.4089 33.0339 28.25 32 28.25Z" fill="url(#paint0_linear_346_112)"/>
</g>
<defs>
<linearGradient id="paint0_linear_346_112" x1="32" y1="62" x2="32" y2="2" gradientUnits="userSpaceOnUse">
<stop stop-color="#339538"/>
<stop offset="1" stop-color="#FFB800"/>
</linearGradient>
<clipPath id="clip0_346_112">
<rect width="64" height="64" fill="white"/>
</clipPath>
</defs>
</svg>
